<!DOCTYPE svg PUBLIC "-//W3C//DTD SVG 20010904//EN" "http://www.w3.org/TR/2001/REC-SVG-20010904/DTD/svg10.dtd">
<svg version="1.0" xmlns="http://www.w3.org/2000/svg" width="79px" height="67px" viewBox="0 0 790 670" preserveAspectRatio="xMidYMid meet">
<g id="layer1" fill="#00c100" stroke="none">
 <path d="M680 535 c0 -9 -7 -27 -16 -40 -15 -24 -14 -26 37 -85 56 -65 82 -73 87 -27 3 20 -9 45 -42 92 -51 70 -66 84 -66 60z"/>
 <path d="M480 450 c0 -5 7 -10 15 -10 8 0 15 5 15 10 0 6 -7 10 -15 10 -8 0 -15 -4 -15 -10z"/>
 <path d="M531 332 c-52 -64 -96 -123 -98 -132 -2 -8 -19 -26 -38 -40 -18 -14 -41 -37 -50 -52 -26 -44 -67 -89 -89 -98 -34 -14 151 -12 198 2 81 24 167 104 207 194 38 84 26 244 -18 244 -11 0 -56 -48 -112 -118z"/>
 <path d="M1 414 c0 -11 3 -14 6 -6 3 7 2 16 -1 19 -3 4 -6 -2 -5 -13z"/>
 </g>
<g id="layer2" fill="#00ba00" stroke="none">
 <path d="M205 657 c-27 -8 -61 -32 -107 -77 -54 -53 -69 -75 -82 -119 -20 -69 -20 -182 -1 -249 20 -67 108 -164 168 -186 38 -13 148 -32 120 -20 -12 5 100 154 116 154 3 0 15 15 26 32 20 35 183 238 199 250 6 4 5 12 -3 21 -10 13 -9 15 7 10 13 -3 24 4 36 22 21 33 13 60 -38 120 l-34 40 -29 -28 c-29 -27 -30 -27 -47 -8 -41 45 -227 66 -331 38z m335 -81 c0 -2 -8 -10 -17 -17 -16 -13 -17 -12 -4 4 13 16 21 21 21 13z m-190 -51 c0 -19 8 -28 34 -39 39 -16 56 -42 56 -83 0 -41 -19 -63 -81 -92 -61 -30 -79 -53 -63 -78 9 -14 25 -18 68 -18 66 1 77 -20 23 -45 -19 -9 -31 -22 -31 -32 1 -11 -5 -18 -17 -18 -13 0 -19 7 -19 24 0 18 -10 29 -37 43 -35 16 -38 22 -41 64 -3 52 3 61 81 99 59 29 77 52 61 78 -17 27 -59 37 -103 26 -35 -10 -40 -9 -44 7 -4 14 5 21 37 31 30 9 42 19 44 36 5 31 32 29 32 -3z m160 11 c0 -2 -8 -10 -17 -17 -16 -13 -17 -12 -4 4 13 16 21 21 21 13z m108 -28 c8 -10 5 -13 -13 -13 -18 0 -21 3 -13 13 6 6 12 12 13 12 1 0 7 -6 13 -12z m-48 -22 c0 -2 -8 -10 -17 -17 -16 -13 -17 -12 -4 4 13 16 21 21 21 13z m-43 -32 c-3 -3 -12 -4 -19 -1 -8 3 -5 6 6 6 11 1 17 -2 13 -5z"/>
 <path d="M650 420 c0 -5 7 -10 15 -10 8 0 15 5 15 10 0 6 -7 10 -15 10 -8 0 -15 -4 -15 -10z"/>
 <path d="M660 365 c0 -8 7 -15 15 -15 8 0 15 7 15 15 0 8 -7 15 -15 15 -8 0 -15 -7 -15 -15z"/>
 <path d="M575 109 c-4 -6 -5 -13 -2 -16 7 -7 27 6 27 18 0 12 -17 12 -25 -2z"/>
 </g>

</svg>